<?xml version="1.0" encoding="UTF-8"?>
<svg version="1.1" xmlns="http://www.w3.org/2000/svg" width="362" height="404">
<path d="M0 0 C2.41796875 1.22265625 2.41796875 1.22265625 5.1875 3.0625 C11.96009884 7.44368217 18.93338811 11.43940635 25.9375 15.4375 C32.90251699 19.42456572 39.85365847 23.4039193 46.5625 27.8125 C53.40165196 32.30512974 60.42187947 36.43503463 67.49511719 40.54443359 C70.27198745 42.15804963 73.04631176 43.77598729 75.8203125 45.39453125 C76.83174316 45.98459961 77.84317383 46.57466797 78.88525391 47.18261719 C80.96830854 48.39803173 83.05131607 49.61352703 85.13427734 50.82910156 C89.57623515 53.42100539 94.01861704 56.01199789 98.46875 58.58984375 C107.71043557 63.96204309 116.76583831 69.60061021 125.80712891 75.30322266 C133.60946928 80.19727084 141.5341157 84.83322464 149.57714844 89.31982422 C150.39473633 89.77760254 151.21232422 90.23538086 152.0546875 90.70703125 C152.77124512 91.1038208 153.48780273 91.50061035 154.22607422 91.90942383 C156 93 156 93 158 95 C158.21913189 97.46626623 158.31313153 99.82326913 158.32125854 102.29264832 C158.33143418 103.0530425 158.34160982 103.81343668 158.35209382 104.5968731 C158.38362071 107.15856873 158.40061281 109.72015123 158.41748047 112.28198242 C158.43655127 114.11326827 158.45633331 115.94454683 158.47677612 117.77581787 C158.53962224 123.80228077 158.58008934 129.82879955 158.6171875 135.85546875 C158.62378214 136.88022631 158.63037679 137.90498387 158.63717127 138.96079469 C158.69873856 148.62277741 158.75216278 158.28477236 158.78600883 167.94689465 C158.82983083 180.31273575 158.91377225 192.67684073 159.05288398 205.0419876 C159.1473394 213.73250169 159.19587222 222.42254724 159.21040261 231.11355859 C159.22032059 236.30633763 159.2505134 241.4971616 159.3298912 246.68938255 C159.4036163 251.57638243 159.42045436 256.46031115 159.39387894 261.34776306 C159.39398687 263.13972578 159.41459966 264.9318242 159.4573822 266.72327614 C159.57775958 272.04934435 159.55507753 276.8752087 158 282 C154.4005589 285.52828302 150.67294572 287.24160395 146 289 C144.76064462 289.66612514 143.53280464 290.35507085 142.328125 291.08203125 C141.31234375 291.65308594 140.2965625 292.22414063 139.25 292.8125 C133.41375782 296.12159106 127.72006106 299.63149231 122.04541016 303.20922852 C115.73217042 307.18612657 109.34432725 311.02846918 102.93359375 314.84594727 C100.68467846 316.18819759 98.44007439 317.5375343 96.1953125 318.88671875 C91.06060183 321.96870927 85.90762025 325.01904579 80.75 328.0625 C79.34077271 328.89515381 79.34077271 328.89515381 77.90307617 329.74462891 C72.96063774 332.66450736 68.01549984 335.57969674 63.06640625 338.48828125 C54.92013916 343.2806465 46.79800104 348.06731083 38.8671875 353.2109375 C34.15113472 356.15365163 29.31829341 358.89608531 24.48657227 361.64379883 C20.25341444 364.06376031 16.09949717 366.55124041 12.01953125 369.22265625 C11.21845947 369.73989258 10.4173877 370.25712891 9.59204102 370.79003906 C8.06575589 371.7822119 6.55108711 372.79256138 5.05053711 373.82324219 C4.01231812 374.49274902 4.01231812 374.49274902 2.953125 375.17578125 C2.35661133 375.57708252 1.76009766 375.97838379 1.14550781 376.3918457 C-3.27780168 377.64565362 -7.29149574 375.3603278 -11.20288086 373.37109375 C-12.27932861 372.73300781 -13.35577637 372.09492188 -14.46484375 371.4375 C-15.05542068 371.09002213 -15.64599762 370.74254425 -16.25447083 370.38453674 C-18.15356394 369.26416482 -20.04559876 368.1324664 -21.9375 367 C-23.25199583 366.22079549 -24.5667761 365.44207062 -25.88183594 364.66381836 C-33.18203902 360.33284067 -40.43372672 355.92898336 -47.60522461 351.38769531 C-56.70117051 345.6325934 -66.04817883 340.29411114 -75.35546875 334.890625 C-86.84683583 328.21316933 -98.29164903 321.46389886 -109.6875 314.625 C-110.30853607 314.2525415 -110.92957214 313.88008301 -111.56942749 313.49633789 C-119.06206508 309.00053159 -126.52100634 304.45472759 -133.95727539 299.86621094 C-139.24092483 296.62556131 -144.57396927 293.46765452 -149.91015625 290.31445312 C-152.28766935 288.89802264 -154.6483374 287.4588923 -157 286 C-158.0504248 285.35683838 -158.0504248 285.35683838 -159.12207031 284.70068359 C-163.80072635 281.64632918 -163.80072635 281.64632918 -164.67670155 278.80516911 C-165.06850741 275.40558065 -165.12930945 272.09128877 -165.13371277 268.66807556 C-165.13597833 267.93975338 -165.13824388 267.2114312 -165.14057809 266.46103865 C-165.14689701 264.02601149 -165.1460901 261.5910403 -165.14526367 259.15600586 C-165.14825639 257.40808541 -165.15165918 255.66016562 -165.15544128 253.9122467 C-165.16427181 249.16862031 -165.16661894 244.42501195 -165.16725707 239.68137813 C-165.16820685 235.72237443 -165.17188575 231.76337493 -165.17542917 227.80437285 C-165.18356934 218.4671546 -165.18601372 209.129946 -165.18530273 199.79272461 C-165.18470134 190.15478882 -165.19526653 180.5169089 -165.2110464 170.87898725 C-165.2241093 162.60627826 -165.22948719 154.33358756 -165.22884732 146.06086832 C-165.22859206 141.11888163 -165.23145898 136.17694462 -165.24202538 131.23496819 C-165.25168588 126.59008769 -165.25179966 121.94530463 -165.24450874 117.30042076 C-165.2434605 115.59439706 -165.24583993 113.88836735 -165.2518692 112.18235397 C-165.25955805 109.856434 -165.2549652 107.53085318 -165.24723816 105.2049408 C-165.24778293 103.90248885 -165.24832769 102.60003691 -165.24888897 101.25811672 C-165.01462341 98.19142981 -164.70543454 96.51603704 -163 94 C-160.953125 92.53515625 -160.953125 92.53515625 -158.25 91.0625 C-157.16847656 90.45664063 -156.08695313 89.85078125 -154.97265625 89.2265625 C-154.3502002 88.88012695 -153.72774414 88.53369141 -153.08642578 88.17675781 C-148.91753896 85.82547833 -144.80660148 83.37458064 -140.6875 80.9375 C-139.74406738 80.380625 -138.80063477 79.82375 -137.82861328 79.25 C-131.05847919 75.24478097 -124.33438983 71.16846933 -117.625 67.0625 C-103.09280658 58.17862659 -88.38129343 49.60812129 -73.56274414 41.21142578 C-65.76613494 36.79082131 -58.13856744 32.25259513 -50.640625 27.33984375 C-37.95554142 19.09882975 -24.74780053 11.58047031 -11.66455078 3.99169922 C-10.19400675 3.11558455 -8.76313772 2.1736089 -7.33984375 1.22265625 C-4.55653926 -0.2317249 -3.09987056 -0.46763211 0 0 Z " fill="#E8E8E6" transform="translate(182,11)"/>
<path d="M0 0 C1.7669759 0.96251348 3.53379705 1.92531106 5.30055237 2.88822937 C6.2844674 3.42435695 7.26838243 3.96048452 8.28211308 4.51285839 C13.20827191 7.20829642 18.07303169 10.00771398 22.9375 12.8125 C24.05793701 13.45848145 25.17837402 14.10446289 26.33276367 14.77001953 C35.15231692 19.87205338 43.8700497 25.13219657 52.56369019 30.44522095 C62.07688369 36.25776717 71.66259239 41.93295428 81.29473877 47.5458374 C92.0532613 53.81867646 102.71572734 60.24120142 113.34375 66.73242188 C114.45105469 67.40853516 115.55835938 68.08464844 116.69921875 68.78125 C117.67721436 69.38001953 118.65520996 69.97878906 119.6628418 70.59570312 C121.91299014 71.9887135 121.91299014 71.9887135 124 73 C128.72669618 122.51126204 128.72669618 122.51126204 121.36474609 132.19287109 C115.35807144 138.32238291 107.22491786 141.3140564 99.20263672 143.87988281 C95.10631859 145.31256368 92.31216683 147.2406911 89 150 C89.74048584 150.42297363 90.48097168 150.84594727 91.24389648 151.28173828 C94.03540136 152.87831606 96.82522908 154.47777762 99.61401367 156.07910156 C100.81291106 156.76675405 102.0124381 157.45331013 103.21264648 158.13867188 C104.95468581 159.13370728 106.69415078 160.13324527 108.43359375 161.1328125 C109.47572021 161.72980957 110.51784668 162.32680664 111.59155273 162.94189453 C113.27873413 163.96065674 113.27873413 163.96065674 115 165 C116.16121368 165.56387672 116.16121368 165.56387672 117.34588623 166.1391449 C121.0226008 168.12941794 123.47814354 169.60344303 124.97795105 173.61712646 C125.52756523 176.91784006 125.76667239 180.11326333 125.8984375 183.45703125 C125.99963394 185.2753949 125.99963394 185.2753949 126.10287476 187.13049316 C126.27248098 191.0269688 126.34174706 194.91257235 126.375 198.8125 C126.39260376 200.12366791 126.41020752 201.43483582 126.42834473 202.78573608 C126.46641434 226.94818292 126.46641434 226.94818292 119.88768005 233.7497406 C113.73197699 238.79863047 106.16743786 241.41474676 98.65283203 243.76513672 C93.65168762 245.45580564 89.57091181 247.98989725 85.1875 250.875 C83.62023528 251.82879918 82.04840642 252.77512944 80.47265625 253.71484375 C79.62848145 254.22257324 78.78430664 254.73030273 77.91455078 255.25341797 C66.91436634 261.84541994 55.87328166 268.36947008 44.8414917 274.90838623 C43.13392688 275.92060978 41.42657356 276.93319011 39.71923828 277.94580078 C33.48609452 281.64181026 27.24633058 285.32632493 21 289 C20.09781738 289.53189941 19.19563477 290.06379883 18.26611328 290.61181641 C15.59687285 292.18353991 12.92405287 293.74898137 10.25 295.3125 C9.44457764 295.78751953 8.63915527 296.26253906 7.80932617 296.75195312 C7.07302979 297.18056641 6.3367334 297.60917969 5.578125 298.05078125 C4.60987793 298.61792847 4.60987793 298.61792847 3.62207031 299.1965332 C2 300 2 300 0 300 C-0.21029225 281.45897404 -0.36897315 262.91819022 -0.46630955 244.3762188 C-0.51270727 235.76668293 -0.57595503 227.15788823 -0.67895508 218.54882812 C-0.76869358 211.04462824 -0.82673121 203.54096509 -0.84679645 196.03624356 C-0.85852546 192.06261886 -0.88606011 188.09052952 -0.95157051 184.11739731 C-1.01276364 180.37571204 -1.03148659 176.63619064 -1.01796913 172.89405251 C-1.02161772 170.86958296 -1.07000357 168.8453482 -1.11978149 166.82148743 C-1.0308177 158.11009597 -1.0308177 158.11009597 1.96450996 154.88440323 C4.25353945 153.33592232 6.4871102 152.13972213 9 151 C10.01191406 150.37351563 11.02382812 149.74703125 12.06640625 149.1015625 C12.89011719 148.61429688 13.71382812 148.12703125 14.5625 147.625 C15.40941406 147.12226563 16.25632813 146.61953125 17.12890625 146.1015625 C17.74636719 145.73804688 18.36382812 145.37453125 19 145 C15.70198879 141.30323681 12.10087301 139.15201158 7.8125 136.8125 C1.08952703 133.08952703 1.08952703 133.08952703 0 132 C-0.09622036 130.29174312 -0.12187628 128.57947886 -0.12025452 126.86851501 C-0.12162918 125.75647202 -0.12300385 124.64442902 -0.12442017 123.49868774 C-0.12082489 122.26798553 -0.11722961 121.03728333 -0.11352539 119.76928711 C-0.11367142 118.48166977 -0.11381744 117.19405243 -0.1139679 115.86741638 C-0.11425586 112.3262524 -0.10835936 108.78512201 -0.10139394 105.24396586 C-0.09516017 101.54705012 -0.09455658 97.85013369 -0.09336853 94.1532135 C-0.09025528 87.14796101 -0.08204199 80.14272405 -0.07201904 73.13747841 C-0.0608577 65.16421124 -0.0553474 57.19094335 -0.05032361 49.21767032 C-0.03985937 32.81177111 -0.02226005 16.40588753 0 0 Z " fill="#020201" transform="translate(179,49)"/>
<path d="M0 0 C-0.01051675 0.67107473 -0.0210335 1.34214947 -0.03186893 2.0335598 C-0.28236853 18.39376128 -0.43813693 34.75188155 -0.48965549 51.11386681 C-0.51683399 59.02683769 -0.5755703 66.93718092 -0.7097168 74.84912109 C-0.82661985 81.74883999 -0.88317493 88.64602606 -0.86853737 95.54676497 C-0.86286517 99.19907397 -0.88652997 102.8456705 -0.98260689 106.49683762 C-2.07338242 121.11491029 -2.07338242 121.11491029 2.72661209 134.1853714 C6.78182028 137.58876543 11.20516552 139.65801671 16.24221897 141.21517372 C18 142 18 142 20 145 C18.71057684 145.87830273 17.41827318 146.75237623 16.125 147.625 C15.40570313 148.11226562 14.68640625 148.59953125 13.9453125 149.1015625 C11 151 11 151 8.56801033 152.01245308 C5.57815971 153.40176235 3.3851137 154.71120225 1 157 C-0.49887385 161.57738335 -0.32374534 166.02614505 -0.22705078 170.80810547 C-0.23409806 172.21786745 -0.24553991 173.62761327 -0.2610321 175.03730774 C-0.2905735 178.85392027 -0.25880486 182.66783093 -0.21586847 186.48422384 C-0.18143321 190.47615215 -0.20358952 194.46776062 -0.21969604 198.45974731 C-0.24160135 206.01418465 -0.21274734 213.56753797 -0.165573 221.12182534 C-0.11433215 229.72404893 -0.11980263 238.32594554 -0.12999368 246.92828155 C-0.14968354 264.61922881 -0.09829526 282.30933462 0 300 C-4.18281014 298.37475817 -8.04304851 296.40537215 -11.9375 294.1875 C-12.9752356 293.59980835 -12.9752356 293.59980835 -14.03393555 293.00024414 C-22.74003627 288.04458136 -31.34842304 282.92189106 -39.96044922 277.80517578 C-43.06721833 275.96007933 -46.17590477 274.11825366 -49.28515625 272.27734375 C-54.35281722 269.27689983 -59.41883838 266.27370104 -64.48414612 263.26928711 C-68.32999303 260.98871867 -72.17794333 258.71173625 -76.02706909 256.43670654 C-78.8013652 254.79648759 -81.57460986 253.15449575 -84.34771729 251.51226807 C-85.65924695 250.73609048 -86.97119068 249.96061195 -88.28363037 249.18597412 C-88.89885559 248.8228009 -89.51408081 248.45962769 -90.14794922 248.08544922 C-90.76603958 247.72209976 -91.38412994 247.35875031 -92.02095032 246.98439026 C-93.27931635 246.23297874 -94.5287321 245.46638491 -95.76896667 244.68540955 C-99.61206682 242.28716669 -103.42191082 240.36134378 -107.60327148 238.6081543 C-113.5204191 235.91790127 -118.98310087 233.25745435 -123 228 C-126.14120831 218.86602983 -125.08821178 208.79119451 -124.44195557 199.29364014 C-124.22493445 195.76287747 -124.13078408 192.22890241 -124.02539062 188.69335938 C-123.80183103 181.78775062 -123.44482153 174.89480571 -123 168 C-114.59628802 172.09550401 -106.41009187 176.35155875 -98.4375 181.25 C-97.58865234 181.765625 -96.73980469 182.28125 -95.86523438 182.8125 C-94.25914192 183.788481 -92.65839221 184.77333716 -91.06445312 185.76904297 C-88.87512437 187.12907028 -88.87512437 187.12907028 -85.87109375 188.3984375 C-85.25363281 188.92695313 -84.63617188 189.45546875 -84 190 C-84.1015625 193.3359375 -84.1015625 193.3359375 -84.37646484 195.29272461 C-84.84147303 199.18865269 -84.76687262 202.43890636 -83 206 C-77.3090853 211.2293788 -69.83817919 214.29028221 -62.92089844 217.57324219 C-58.96272781 219.50667157 -55.23572437 221.73514274 -51.5 224.0625 C-47.03573678 226.77965086 -42.5406049 229.41385565 -38 232 C-33.95826826 202.25278669 -33.95826826 202.25278669 -41.65185547 174.96630859 C-47.87078414 168.84690734 -56.41604962 165.82634509 -64.56933594 163.17480469 C-68.7354123 161.74816368 -72.12145932 159.81739231 -75.75 157.375 C-76.84828125 156.71242187 -77.9465625 156.04984375 -79.078125 155.3671875 C-79.67173828 155.00850586 -80.26535156 154.64982422 -80.87695312 154.28027344 C-85.74571608 151.34423469 -90.6241339 148.42422097 -95.5 145.5 C-98.57380192 143.65581702 -101.63935352 141.8147342 -104.66381836 139.89038086 C-107.24619696 138.42712747 -109.33221989 137.48832854 -112.08813477 136.54907227 C-116.56385034 134.83469449 -120.30964843 133.11151438 -123 129 C-125.37746885 120.28527806 -124.48140657 110.88363513 -124.02996826 101.95898438 C-123.87547184 98.58147851 -123.80780225 95.20229872 -123.73242188 91.82226562 C-123.5675401 85.21046771 -123.31701622 78.60615804 -123 72 C-122.36741272 71.64448563 -121.73482544 71.28897125 -121.08306885 70.92268372 C-104.30621944 61.49474561 -104.30621944 61.49474561 -87.75 51.6875 C-85.65534989 50.42251124 -83.56028237 49.15821343 -81.46484375 47.89453125 C-80.40894043 47.25725098 -79.35303711 46.6199707 -78.26513672 45.96337891 C-72.6296359 42.57466218 -66.97135365 39.22452728 -61.3125 35.875 C-60.17989746 35.20436523 -59.04729492 34.53373047 -57.88037109 33.84277344 C-52.68428185 30.76755225 -47.48608561 27.69593426 -42.28515625 24.62890625 C-40.48175337 23.56513377 -38.67836759 22.5013323 -36.875 21.4375 C-36.00955566 20.92727295 -35.14411133 20.4170459 -34.25244141 19.89135742 C-29.19248138 16.90307813 -24.14712092 13.89143079 -19.11328125 10.859375 C-18.53489502 10.51121231 -17.95650879 10.16304962 -17.3605957 9.80433655 C-14.52415322 8.09651954 -11.68941115 6.38602517 -8.85693359 4.67163086 C-7.8458252 4.06198486 -6.8347168 3.45233887 -5.79296875 2.82421875 C-4.43981567 2.00570435 -4.43981567 2.00570435 -3.05932617 1.1706543 C-1 0 -1 0 0 0 Z " fill="#F4CC16" transform="translate(179,49)"/>
<path d="M0 0 C2.41796875 1.22265625 2.41796875 1.22265625 5.1875 3.0625 C11.96009884 7.44368217 18.93338811 11.43940635 25.9375 15.4375 C32.90251699 19.42456572 39.85365847 23.4039193 46.5625 27.8125 C53.40165196 32.30512974 60.42187947 36.43503463 67.49511719 40.54443359 C70.27198745 42.15804963 73.04631176 43.77598729 75.8203125 45.39453125 C76.83174316 45.98459961 77.84317383 46.57466797 78.88525391 47.18261719 C80.96830854 48.39803173 83.05131607 49.61352703 85.13427734 50.82910156 C89.57623515 53.42100539 94.01861704 56.01199789 98.46875 58.58984375 C107.71043557 63.96204309 116.76583831 69.60061021 125.80712891 75.30322266 C133.60946928 80.19727084 141.5341157 84.83322464 149.57714844 89.31982422 C150.39473633 89.77760254 151.21232422 90.23538086 152.0546875 90.70703125 C152.77124512 91.1038208 153.48780273 91.50061035 154.22607422 91.90942383 C156 93 156 93 158 95 C158.21913189 97.46626623 158.31313153 99.82326913 158.32125854 102.29264832 C158.33143418 103.0530425 158.34160982 103.81343668 158.35209382 104.5968731 C158.38362071 107.15856873 158.40061281 109.72015123 158.41748047 112.28198242 C158.43655127 114.11326827 158.45633331 115.94454683 158.47677612 117.77581787 C158.53962224 123.80228077 158.58008934 129.82879955 158.6171875 135.85546875 C158.62378214 136.88022631 158.63037679 137.90498387 158.63717127 138.96079469 C158.69873856 148.62277741 158.75216278 158.28477236 158.78600883 167.94689465 C158.82983083 180.31273575 158.91377225 192.67684073 159.05288398 205.0419876 C159.1473394 213.73250169 159.19587222 222.42254724 159.21040261 231.11355859 C159.22032059 236.30633763 159.2505134 241.4971616 159.3298912 246.68938255 C159.4036163 251.57638243 159.42045436 256.46031115 159.39387894 261.34776306 C159.39398687 263.13972578 159.41459966 264.9318242 159.4573822 266.72327614 C159.57775958 272.04934435 159.55507753 276.8752087 158 282 C154.4005589 285.52828302 150.67294572 287.24160395 146 289 C144.76064462 289.66612514 143.53280464 290.35507085 142.328125 291.08203125 C141.31234375 291.65308594 140.2965625 292.22414063 139.25 292.8125 C133.41375782 296.12159106 127.72006106 299.63149231 122.04541016 303.20922852 C115.73217042 307.18612657 109.34432725 311.02846918 102.93359375 314.84594727 C100.68467846 316.18819759 98.44007439 317.5375343 96.1953125 318.88671875 C91.06060183 321.96870927 85.90762025 325.01904579 80.75 328.0625 C79.34077271 328.89515381 79.34077271 328.89515381 77.90307617 329.74462891 C72.96063774 332.66450736 68.01549984 335.57969674 63.06640625 338.48828125 C54.92013916 343.2806465 46.79800104 348.06731083 38.8671875 353.2109375 C34.15113472 356.15365163 29.31829341 358.89608531 24.48657227 361.64379883 C20.25341444 364.06376031 16.09949717 366.55124041 12.01953125 369.22265625 C11.21845947 369.73989258 10.4173877 370.25712891 9.59204102 370.79003906 C8.06575589 371.7822119 6.55108711 372.79256138 5.05053711 373.82324219 C4.01231812 374.49274902 4.01231812 374.49274902 2.953125 375.17578125 C2.35661133 375.57708252 1.76009766 375.97838379 1.14550781 376.3918457 C-3.27780168 377.64565362 -7.29149574 375.3603278 -11.20288086 373.37109375 C-12.27932861 372.73300781 -13.35577637 372.09492188 -14.46484375 371.4375 C-15.05542068 371.09002213 -15.64599762 370.74254425 -16.25447083 370.38453674 C-18.15356394 369.26416482 -20.04559876 368.1324664 -21.9375 367 C-23.25199583 366.22079549 -24.5667761 365.44207062 -25.88183594 364.66381836 C-33.18203902 360.33284067 -40.43372672 355.92898336 -47.60522461 351.38769531 C-56.70117051 345.6325934 -66.04817883 340.29411114 -75.35546875 334.890625 C-86.84683583 328.21316933 -98.29164903 321.46389886 -109.6875 314.625 C-110.30853607 314.2525415 -110.92957214 313.88008301 -111.56942749 313.49633789 C-119.06206508 309.00053159 -126.52100634 304.45472759 -133.95727539 299.86621094 C-139.24092483 296.62556131 -144.57396927 293.46765452 -149.91015625 290.31445312 C-152.28766935 288.89802264 -154.6483374 287.4588923 -157 286 C-158.0504248 285.35683838 -158.0504248 285.35683838 -159.12207031 284.70068359 C-163.80072635 281.64632918 -163.80072635 281.64632918 -164.67670155 278.80516911 C-165.06850741 275.40558065 -165.12930945 272.09128877 -165.13371277 268.66807556 C-165.13597833 267.93975338 -165.13824388 267.2114312 -165.14057809 266.46103865 C-165.14689701 264.02601149 -165.1460901 261.5910403 -165.14526367 259.15600586 C-165.14825639 257.40808541 -165.15165918 255.66016562 -165.15544128 253.9122467 C-165.16427181 249.16862031 -165.16661894 244.42501195 -165.16725707 239.68137813 C-165.16820685 235.72237443 -165.17188575 231.76337493 -165.17542917 227.80437285 C-165.18356934 218.4671546 -165.18601372 209.129946 -165.18530273 199.79272461 C-165.18470134 190.15478882 -165.19526653 180.5169089 -165.2110464 170.87898725 C-165.2241093 162.60627826 -165.22948719 154.33358756 -165.22884732 146.06086832 C-165.22859206 141.11888163 -165.23145898 136.17694462 -165.24202538 131.23496819 C-165.25168588 126.59008769 -165.25179966 121.94530463 -165.24450874 117.30042076 C-165.2434605 115.59439706 -165.24583993 113.88836735 -165.2518692 112.18235397 C-165.25955805 109.856434 -165.2549652 107.53085318 -165.24723816 105.2049408 C-165.24778293 103.90248885 -165.24832769 102.60003691 -165.24888897 101.25811672 C-165.01462341 98.19142981 -164.70543454 96.51603704 -163 94 C-160.953125 92.53515625 -160.953125 92.53515625 -158.25 91.0625 C-157.16847656 90.45664063 -156.08695313 89.85078125 -154.97265625 89.2265625 C-154.3502002 88.88012695 -153.72774414 88.53369141 -153.08642578 88.17675781 C-148.91753896 85.82547833 -144.80660148 83.37458064 -140.6875 80.9375 C-139.74406738 80.380625 -138.80063477 79.82375 -137.82861328 79.25 C-131.05847919 75.24478097 -124.33438983 71.16846933 -117.625 67.0625 C-103.09280658 58.17862659 -88.38129343 49.60812129 -73.56274414 41.21142578 C-65.76613494 36.79082131 -58.13856744 32.25259513 -50.640625 27.33984375 C-37.95554142 19.09882975 -24.74780053 11.58047031 -11.66455078 3.99169922 C-10.19400675 3.11558455 -8.76313772 2.1736089 -7.33984375 1.22265625 C-4.55653926 -0.2317249 -3.09987056 -0.46763211 0 0 Z M-8.3203125 19.39453125 C-9.23103516 19.92780029 -10.14175781 20.46106934 -11.08007812 21.01049805 C-12.58731445 21.90248901 -12.58731445 21.90248901 -14.125 22.8125 C-15.71344727 23.74606323 -15.71344727 23.74606323 -17.33398438 24.69848633 C-20.89280184 26.79315876 -24.44706331 28.89537637 -28 31 C-28.61645386 31.36492554 -29.23290771 31.72985107 -29.86804199 32.10583496 C-37.84365068 36.82735811 -45.811968 41.56107378 -53.77700806 46.30039978 C-58.57186313 49.15269835 -63.37082867 51.99798091 -68.171875 54.83984375 C-81.5263003 62.74777528 -94.84398865 70.7073195 -108.08920288 78.79696655 C-119.8429685 85.96945287 -131.75163068 92.85346597 -143.71704102 99.66577148 C-145.51489808 100.71649214 -147.26735561 101.84490374 -149 103 C-149.48739583 106.0150984 -149.48739583 106.0150984 -149.44824219 109.64053345 C-149.46584563 110.67593578 -149.46584563 110.67593578 -149.4838047 111.73225534 C-149.51932539 114.05674505 -149.53314249 116.38085302 -149.546875 118.70556641 C-149.56730142 120.36775081 -149.58886366 122.02992159 -149.61148071 123.69207764 C-149.67984811 129.16179664 -149.71582478 134.63154066 -149.75 140.1015625 C-149.76345347 141.98410529 -149.77706479 143.86664695 -149.79083252 145.74918747 C-149.8462142 153.58125071 -149.89389972 161.41328778 -149.91995239 169.24550819 C-149.95731396 180.47105386 -150.03917048 191.6941666 -150.18508148 202.91884482 C-150.28414891 210.81025214 -150.33325361 218.70101485 -150.34516144 226.59303033 C-150.35351375 231.30705982 -150.38340142 236.01862348 -150.46618652 240.73198318 C-150.54293388 245.17032428 -150.55758427 249.60463455 -150.52528 254.04347992 C-150.52406973 255.66894709 -150.54497687 257.29460998 -150.59004593 258.91945267 C-150.71891277 263.83932062 -150.63218275 268.2915036 -149 273 C-145.03440978 276.76023035 -141.00739711 278.78721572 -136 281 C-134.6470445 281.78085191 -133.30481807 282.58119894 -131.98339844 283.41430664 C-130.8699707 284.07293701 -129.75654297 284.73156738 -128.609375 285.41015625 C-127.98585144 285.77954819 -127.36232788 286.14894012 -126.71990967 286.52952576 C-125.40541364 287.30821269 -124.09065419 288.0864551 -122.77563477 288.86425781 C-119.24991481 290.94985906 -115.72647179 293.03929906 -112.203125 295.12890625 C-111.14665771 295.75540573 -111.14665771 295.75540573 -110.06884766 296.39456177 C-103.86631275 300.07492168 -97.68044167 303.78266335 -91.5 307.5 C-81.91588289 313.26321447 -72.30631265 318.98247855 -62.6875 324.6875 C-53.92968938 329.88282007 -45.17248946 335.07885871 -36.4375 340.3125 C-35.67711426 340.76536377 -34.91672852 341.21822754 -34.13330078 341.68481445 C-29.66097938 344.3591771 -25.244842 347.10759366 -20.8515625 349.91015625 C-19.80556885 350.56910889 -18.7595752 351.22806152 -17.68188477 351.90698242 C-15.64402114 353.1926691 -13.61533693 354.49305412 -11.59741211 355.80981445 C-10.67968018 356.38562256 -9.76194824 356.96143066 -8.81640625 357.5546875 C-8.00631104 358.07530762 -7.19621582 358.59592773 -6.36157227 359.13232422 C-4.0049133 360.25567803 -4.0049133 360.25567803 -1.5300293 359.3371582 C1.10469825 357.94466542 3.71646292 356.54222263 6.296875 355.05078125 C7.32441895 354.45813477 8.35196289 353.86548828 9.41064453 353.25488281 C11.06362549 352.29340332 11.06362549 352.29340332 12.75 351.3125 C13.91908617 350.63505335 15.08819464 349.95764517 16.25732422 349.28027344 C26.00749862 343.62015326 35.67719851 337.82887738 45.33203125 332.0078125 C52.12230004 327.91748635 58.94186876 323.87748203 65.76287842 319.83874512 C74.24057122 314.81842413 82.71763553 309.7979106 91.13671875 304.6796875 C92.17759581 304.04877134 93.21847286 303.41785519 94.29089165 302.76782036 C96.5925858 301.36753694 98.87357013 299.94540046 101.14850998 298.50111961 C106.68649475 295.02520771 112.12303876 291.84531936 118.13499999 289.2573632 C134.77991346 282.4086224 134.77991346 282.4086224 145.86320496 269.13335419 C148.9801031 258.99405252 148.44760529 247.98962337 148.16668987 237.50733519 C148.0695655 232.87453939 148.13439655 228.24328675 148.17340088 223.61001587 C148.21312929 215.83470777 148.12197552 208.06926996 147.95214844 200.29589844 C147.75842663 191.34911333 147.77987691 182.42212596 147.91492438 173.47470987 C148.04009906 164.81134318 148.00567552 156.15525982 147.90259552 147.49184036 C147.86208012 143.8304781 147.87678898 140.1758058 147.93852997 136.51478195 C148.83564572 118.58127017 148.83564572 118.58127017 142.71121812 102.34738636 C136.20800821 95.74261816 127.69404585 91.90675644 119.2548008 88.39188004 C115.06686895 86.60095669 111.28995577 84.3645897 107.44921875 81.9375 C106.29005181 81.25409896 105.12800453 80.57555587 103.96289062 79.90234375 C95.17490689 74.79829118 86.40877436 69.66278711 77.70077515 64.42358398 C73.31669595 61.78672607 68.92228871 59.16804419 64.51953125 56.5625 C63.8966774 56.19377274 63.27382355 55.82504547 62.63209534 55.44514465 C61.3518118 54.6872503 60.07151273 53.92938219 58.79119873 53.17153931 C46.32931554 45.79316191 33.91183962 38.34740612 21.56176758 30.78320312 C15.85130543 27.29539163 10.11242124 23.86197398 4.3203125 20.51171875 C3.71903534 20.16027298 3.11775818 19.80882721 2.4982605 19.44673157 C-2.32228854 16.68099163 -3.60419663 16.61969582 -8.3203125 19.39453125 Z " fill="#151515" transform="translate(182,11)"/>
<path d="M0 0 C-0.14308594 1.79848389 -0.14308594 1.79848389 -0.2890625 3.63330078 C-2.61118492 25.1070945 -2.61118492 25.1070945 2.98388672 45.12158203 C8.32059315 49.91683837 14.77587841 52.240665 21.45996094 54.61425781 C27.71560537 57.06301904 33.31439467 60.61741224 39.0625 64.0625 C41.19826253 65.28422521 43.33492801 66.50437382 45.47265625 67.72265625 C49.84482252 70.26259249 53.95673878 72.9661203 58 76 C54.79033252 79.54584213 51.17250825 81.94350683 47.0625 84.3125 C46.45470703 84.68439453 45.84691406 85.05628906 45.22070312 85.43945312 C40.68572454 88.06651192 40.68572454 88.06651192 37.61132812 87.76831055 C34.70982504 86.9146241 32.42283249 85.74021171 29.80859375 84.21875 C28.79587402 83.63279053 27.7831543 83.04683105 26.73974609 82.44311523 C25.65000488 81.80188721 24.56026367 81.16065918 23.4375 80.5 C22.2822519 79.82658151 21.12681178 79.15349233 19.97119141 78.48071289 C10.3694716 72.8732158 0.86835835 67.10046157 -8.61914062 61.30249023 C-17.55495648 55.84634053 -26.56532145 50.53306732 -35.62744141 45.28881836 C-36.5560498 44.75135986 -37.4846582 44.21390137 -38.44140625 43.66015625 C-39.25295166 43.19230713 -40.06449707 42.72445801 -40.90063477 42.24243164 C-45.90211077 39.28249311 -45.90211077 39.28249311 -46.85546875 36.53125 C-47.25326207 32.89963099 -47.15329758 30.48542702 -46 27 C-42.09143523 23.35082716 -37.5895943 21.08779452 -32.88769531 18.59326172 C-29.44958256 16.69631179 -26.11294716 14.66186609 -22.7734375 12.59765625 C-22.14554321 12.21025772 -21.51764893 11.82285919 -20.87072754 11.42372131 C-19.5938408 10.63544605 -18.31714854 9.84685567 -17.04064941 9.05795288 C-13.95244146 7.15092101 -10.85938741 5.25240272 -7.7578125 3.3671875 C-6.6970752 2.71862793 -5.63633789 2.07006836 -4.54345703 1.40185547 C-2 0 -2 0 0 0 Z " fill="#E9E9E7" transform="translate(141,117)"/>
<path d="M0 0 C0.77287354 0.50789062 1.54574707 1.01578125 2.34204102 1.5390625 C3.86390015 2.36277344 3.86390015 2.36277344 5.41650391 3.203125 C7.09860962 4.17378906 7.09860962 4.17378906 8.81469727 5.1640625 C9.41962509 5.51162598 10.02455292 5.85918945 10.64781189 6.21728516 C12.56850815 7.32147517 14.48663764 8.43002975 16.40454102 9.5390625 C18.3264379 10.64733951 20.24887007 11.75467224 22.17198181 12.86083984 C23.91470804 13.86371562 25.6558822 14.86928705 27.39697266 15.875 C29.67580544 17.16261703 32.00092393 18.36850396 34.34204102 19.5390625 C34.34204102 23.8290625 34.34204102 28.1190625 34.34204102 32.5390625 C32.45098633 33.61220703 32.45098633 33.61220703 30.52172852 34.70703125 C19.73689408 40.84201084 9.00728942 47.05654798 -1.63500977 53.4362793 C-2.51141113 53.95875244 -3.3878125 54.48122559 -4.29077148 55.01953125 C-5.06308105 55.48254639 -5.83539063 55.94556152 -6.63110352 56.42260742 C-8.65795898 57.5390625 -8.65795898 57.5390625 -11.65795898 58.5390625 C-11.65795898 40.7190625 -11.65795898 22.8990625 -11.65795898 4.5390625 C-2.65795898 -0.4609375 -2.65795898 -0.4609375 0 0 Z " fill="#E8E8E7" transform="translate(229.657958984375,222.4609375)"/>
<path d="M0 0 C5.24661273 1.67419899 9.50441913 3.92972773 14.17016602 6.8503418 C18.54945776 9.56886613 22.98852528 12.08425621 27.5390625 14.5078125 C28.67561279 15.13469971 29.81216309 15.76158691 30.9831543 16.4074707 C33.25963671 17.66292284 35.55550029 18.88394357 37.87036133 20.06713867 C45.45419477 24.33961456 45.45419477 24.33961456 46.97460938 28.96484375 C47.24567275 33.08906039 47.20250067 36.43520067 44.6159668 39.80102539 C42.69653475 41.26682662 40.79575994 42.31813814 38.625 43.375 C37.89490723 43.77436768 37.16481445 44.17373535 36.41259766 44.58520508 C34.95652024 45.38114044 33.49152736 46.16100908 32.01757812 46.92333984 C28.59600616 48.74922711 25.43050719 50.98065313 22.2109375 53.13671875 C18.10819159 54.73867431 14.39583792 53.13930995 10.38232422 51.72680664 C6.29015061 49.80841628 2.67378286 47.72293726 0 44 C-2.31371879 36.80523553 -1.31106745 28.86298821 -0.875 21.4375 C-0.80470483 19.3589334 -0.74083853 17.28013882 -0.68359375 15.20117188 C-0.52996339 10.12845231 -0.28891127 5.06674174 0 0 Z " fill="#E7E7E6" transform="translate(217,118)"/>
<path d="M0 0 C0.66 0.33 1.32 0.66 2 1 C-0.20552924 2.47035282 -2.41112639 3.94060144 -4.6171875 5.41015625 C-6.49772963 6.66487862 -8.37455053 7.92517824 -10.25 9.1875 C-12.79525494 10.86505439 -15.37284808 12.45461652 -18 14 C-18.66 13.34 -19.32 12.68 -20 12 C-16.71619398 9.96617319 -13.42178728 7.95020438 -10.125 5.9375 C-9.18785156 5.35677734 -8.25070313 4.77605469 -7.28515625 4.17773438 C-6.38925781 3.63310547 -5.49335937 3.08847656 -4.5703125 2.52734375 C-3.74289551 2.01937256 -2.91547852 1.51140137 -2.06298828 0.98803711 C-1.04180908 0.49895874 -1.04180908 0.49895874 0 0 Z " fill="#FADA29" transform="translate(122,82)"/>
<path d="M0 0 C0.33 0 0.66 0 1 0 C1.06058594 1.04800781 1.12117188 2.09601563 1.18359375 3.17578125 C1.26801738 4.55470048 1.35266447 5.93360605 1.4375 7.3125 C1.47681641 8.00279297 1.51613281 8.69308594 1.55664062 9.40429688 C1.74927415 12.47161535 2.02322717 15.06968152 3 18 C2.01 18 1.02 18 0 18 C0 12.06 0 6.12 0 0 Z " fill="#F4C409" transform="translate(56,160)"/>
</svg>
